999
"DXF R12 Output" (www.mydxf.blogspot.com)
 0 
SECTION
 2 
HEADER
 9 
$ACADVER
 1 
AC1009
 9 
$EXTMIN
 10 
 0 
 20 
 0 
 9 
$EXTMAX
 10 
 8.5 
 20 
 11 
 0 
ENDSEC
 0 
SECTION
 2 
ENTITIES
0
LINE
8
Layer 1
10
0.846666
20
286.576000
11
-0.846666
21
284.882000
0
LINE
8
Layer 1
10
0.000000
20
287.140000
11
0.000000
21
284.318000
0
LINE
8
Layer 1
10
2.257780
20
284.600000
11
1.128890
21
283.471110
0
LINE
8
Layer 1
10
1.693330
20
285.165000
11
0.564440
21
284.036110
0
LINE
8
Layer 1
10
1.128890
20
285.729000
11
0.000000
21
284.600110
0
LINE
8
0
10
8.266660
20
-89.737400
11
7.983292
21
-87.577920
0
LINE
8
0
10
7.983292
20
-87.577920
11
7.163430
21
-85.598638
0
LINE
8
0
10
7.163430
20
-85.598638
11
5.862780
21
-83.896274
0
LINE
8
0
10
5.862780
20
-83.896274
11
4.137051
21
-82.567548
0
LINE
8
0
10
4.137051
20
-82.567548
11
2.124339
21
-81.735298
0
LINE
8
0
10
2.124339
20
-81.735298
11
0.000010
21
-81.457882
0
LINE
8
0
10
0.000010
20
-81.457882
11
-2.124319
21
-81.735298
0
LINE
8
0
10
-2.124319
20
-81.735298
11
-4.137031
21
-82.567548
0
LINE
8
0
10
-4.137031
20
-82.567548
11
-5.862760
21
-83.896274
0
LINE
8
0
10
-5.862760
20
-83.896274
11
-7.163410
21
-85.598638
0
LINE
8
0
10
-7.163410
20
-85.598638
11
-7.983272
21
-87.577920
0
LINE
8
0
10
-7.983272
20
-87.577920
11
-8.266640
21
-89.737400
0
LINE
8
0
10
-8.266640
20
-89.737400
11
-7.983272
21
-91.896880
0
LINE
8
0
10
-7.983272
20
-91.896880
11
-7.163410
21
-93.876162
0
LINE
8
0
10
-7.163410
20
-93.876162
11
-5.862760
21
-95.578526
0
LINE
8
0
10
-5.862760
20
-95.578526
11
-4.137031
21
-96.907252
0
LINE
8
0
10
-4.137031
20
-96.907252
11
-2.124319
21
-97.739502
0
LINE
8
0
10
-2.124319
20
-97.739502
11
0.000010
21
-98.016918
0
LINE
8
0
10
0.000010
20
-98.016918
11
2.124339
21
-97.739502
0
LINE
8
0
10
2.124339
20
-97.739502
11
4.137051
21
-96.907252
0
LINE
8
0
10
4.137051
20
-96.907252
11
5.862780
21
-95.578526
0
LINE
8
0
10
5.862780
20
-95.578526
11
7.163430
21
-93.876162
0
LINE
8
0
10
7.163430
20
-93.876162
11
7.983292
21
-91.896880
0
LINE
8
0
10
7.983292
20
-91.896880
11
8.266660
21
-89.737400
0
LINE
8
0
10
8.266660
20
-89.737400
11
8.266660
21
-89.737400
0
LINE
8
0
10
-165.333000
20
-89.737400
11
-165.425311
21
-89.041621
0
LINE
8
0
10
-165.425311
20
-89.041621
11
-165.690269
21
-88.404070
0
LINE
8
0
10
-165.690269
20
-88.404070
11
-166.109927
21
-87.855835
0
LINE
8
0
10
-166.109927
20
-87.855835
11
-166.666335
21
-87.428005
0
LINE
8
0
10
-166.666335
20
-87.428005
11
-167.315051
21
-87.160056
0
LINE
8
0
10
-167.315051
20
-87.160056
11
-167.999665
21
-87.070740
0
LINE
8
0
10
-167.999665
20
-87.070740
11
-168.684279
21
-87.160056
0
LINE
8
0
10
-168.684279
20
-87.160056
11
-169.332995
21
-87.428005
0
LINE
8
0
10
-169.332995
20
-87.428005
11
-169.889403
21
-87.855835
0
LINE
8
0
10
-169.889403
20
-87.855835
11
-170.309060
21
-88.404070
0
LINE
8
0
10
-170.309060
20
-88.404070
11
-170.574017
21
-89.041621
0
LINE
8
0
10
-170.574017
20
-89.041621
11
-170.666325
21
-89.737400
0
LINE
8
0
10
-170.666325
20
-89.737400
11
-170.574016
21
-90.433179
0
LINE
8
0
10
-170.574016
20
-90.433179
11
-170.309058
21
-91.070730
0
LINE
8
0
10
-170.309058
20
-91.070730
11
-169.889401
21
-91.618965
0
LINE
8
0
10
-169.889401
20
-91.618965
11
-169.332992
21
-92.046795
0
LINE
8
0
10
-169.332992
20
-92.046795
11
-168.684277
21
-92.314744
0
LINE
8
0
10
-168.684277
20
-92.314744
11
-167.999662
21
-92.404060
0
LINE
8
0
10
-167.999662
20
-92.404060
11
-167.315048
21
-92.314744
0
LINE
8
0
10
-167.315048
20
-92.314744
11
-166.666332
21
-92.046795
0
LINE
8
0
10
-166.666332
20
-92.046795
11
-166.109924
21
-91.618965
0
LINE
8
0
10
-166.109924
20
-91.618965
11
-165.690267
21
-91.070730
0
LINE
8
0
10
-165.690267
20
-91.070730
11
-165.425310
21
-90.433179
0
LINE
8
0
10
-165.425310
20
-90.433179
11
-165.333002
21
-89.737400
0
LINE
8
0
10
-165.333002
20
-89.737400
11
-165.333000
21
-89.737400
0
LINE
8
0
10
114.667000
20
7.257400
11
114.574689
21
7.953179
0
LINE
8
0
10
114.574689
20
7.953179
11
114.309731
21
8.590730
0
LINE
8
0
10
114.309731
20
8.590730
11
113.890073
21
9.138965
0
LINE
8
0
10
113.890073
20
9.138965
11
113.333665
21
9.566795
0
LINE
8
0
10
113.333665
20
9.566795
11
112.684949
21
9.834744
0
LINE
8
0
10
112.684949
20
9.834744
11
112.000335
21
9.924060
0
LINE
8
0
10
112.000335
20
9.924060
11
111.315721
21
9.834744
0
LINE
8
0
10
111.315721
20
9.834744
11
110.667005
21
9.566795
0
LINE
8
0
10
110.667005
20
9.566795
11
110.110597
21
9.138965
0
LINE
8
0
10
110.110597
20
9.138965
11
109.690940
21
8.590730
0
LINE
8
0
10
109.690940
20
8.590730
11
109.425983
21
7.953179
0
LINE
8
0
10
109.425983
20
7.953179
11
109.333675
21
7.257400
0
LINE
8
0
10
109.333675
20
7.257400
11
109.425984
21
6.561621
0
LINE
8
0
10
109.425984
20
6.561621
11
109.690942
21
5.924070
0
LINE
8
0
10
109.690942
20
5.924070
11
110.110599
21
5.375835
0
LINE
8
0
10
110.110599
20
5.375835
11
110.667007
21
4.948005
0
LINE
8
0
10
110.667007
20
4.948005
11
111.315723
21
4.680056
0
LINE
8
0
10
111.315723
20
4.680056
11
112.000337
21
4.590740
0
LINE
8
0
10
112.000337
20
4.590740
11
112.684952
21
4.680056
0
LINE
8
0
10
112.684952
20
4.680056
11
113.333667
21
4.948005
0
LINE
8
0
10
113.333667
20
4.948005
11
113.890076
21
5.375835
0
LINE
8
0
10
113.890076
20
5.375835
11
114.309733
21
5.924070
0
LINE
8
0
10
114.309733
20
5.924070
11
114.574690
21
6.561621
0
LINE
8
0
10
114.574690
20
6.561621
11
114.666997
21
7.257400
0
LINE
8
0
10
114.666997
20
7.257400
11
114.667000
21
7.257400
0
LINE
8
0
10
2.666660
20
7.257400
11
2.574349
21
7.953179
0
LINE
8
0
10
2.574349
20
7.953179
11
2.309391
21
8.590730
0
LINE
8
0
10
2.309391
20
8.590730
11
1.889733
21
9.138965
0
LINE
8
0
10
1.889733
20
9.138965
11
1.333325
21
9.566795
0
LINE
8
0
10
1.333325
20
9.566795
11
0.684609
21
9.834744
0
LINE
8
0
10
0.684609
20
9.834744
11
-0.000005
21
9.924060
0
LINE
8
0
10
-0.000005
20
9.924060
11
-0.684619
21
9.834744
0
LINE
8
0
10
-0.684619
20
9.834744
11
-1.333335
21
9.566795
0
LINE
8
0
10
-1.333335
20
9.566795
11
-1.889743
21
9.138965
0
LINE
8
0
10
-1.889743
20
9.138965
11
-2.309400
21
8.590730
0
LINE
8
0
10
-2.309400
20
8.590730
11
-2.574357
21
7.953179
0
LINE
8
0
10
-2.574357
20
7.953179
11
-2.666665
21
7.257400
0
LINE
8
0
10
-2.666665
20
7.257400
11
-2.574356
21
6.561621
0
LINE
8
0
10
-2.574356
20
6.561621
11
-2.309398
21
5.924070
0
LINE
8
0
10
-2.309398
20
5.924070
11
-1.889741
21
5.375835
0
LINE
8
0
10
-1.889741
20
5.375835
11
-1.333333
21
4.948005
0
LINE
8
0
10
-1.333333
20
4.948005
11
-0.684617
21
4.680056
0
LINE
8
0
10
-0.684617
20
4.680056
11
-0.000003
21
4.590740
0
LINE
8
0
10
-0.000003
20
4.590740
11
0.684612
21
4.680056
0
LINE
8
0
10
0.684612
20
4.680056
11
1.333327
21
4.948005
0
LINE
8
0
10
1.333327
20
4.948005
11
1.889736
21
5.375835
0
LINE
8
0
10
1.889736
20
5.375835
11
2.309393
21
5.924070
0
LINE
8
0
10
2.309393
20
5.924070
11
2.574350
21
6.561621
0
LINE
8
0
10
2.574350
20
6.561621
11
2.666657
21
7.257400
0
LINE
8
0
10
2.666657
20
7.257400
11
2.666660
21
7.257400
0
LINE
8
0
10
170.667000
20
-89.737400
11
170.574689
21
-89.041621
0
LINE
8
0
10
170.574689
20
-89.041621
11
170.309731
21
-88.404070
0
LINE
8
0
10
170.309731
20
-88.404070
11
169.890073
21
-87.855835
0
LINE
8
0
10
169.890073
20
-87.855835
11
169.333665
21
-87.428005
0
LINE
8
0
10
169.333665
20
-87.428005
11
168.684949
21
-87.160056
0
LINE
8
0
10
168.684949
20
-87.160056
11
168.000335
21
-87.070740
0
LINE
8
0
10
168.000335
20
-87.070740
11
167.315721
21
-87.160056
0
LINE
8
0
10
167.315721
20
-87.160056
11
166.667005
21
-87.428005
0
LINE
8
0
10
166.667005
20
-87.428005
11
166.110597
21
-87.855835
0
LINE
8
0
10
166.110597
20
-87.855835
11
165.690940
21
-88.404070
0
LINE
8
0
10
165.690940
20
-88.404070
11
165.425983
21
-89.041621
0
LINE
8
0
10
165.425983
20
-89.041621
11
165.333675
21
-89.737400
0
LINE
8
0
10
165.333675
20
-89.737400
11
165.425984
21
-90.433179
0
LINE
8
0
10
165.425984
20
-90.433179
11
165.690942
21
-91.070730
0
LINE
8
0
10
165.690942
20
-91.070730
11
166.110599
21
-91.618965
0
LINE
8
0
10
166.110599
20
-91.618965
11
166.667008
21
-92.046795
0
LINE
8
0
10
166.667008
20
-92.046795
11
167.315723
21
-92.314744
0
LINE
8
0
10
167.315723
20
-92.314744
11
168.000338
21
-92.404060
0
LINE
8
0
10
168.000338
20
-92.404060
11
168.684952
21
-92.314744
0
LINE
8
0
10
168.684952
20
-92.314744
11
169.333668
21
-92.046795
0
LINE
8
0
10
169.333668
20
-92.046795
11
169.890076
21
-91.618965
0
LINE
8
0
10
169.890076
20
-91.618965
11
170.309733
21
-91.070730
0
LINE
8
0
10
170.309733
20
-91.070730
11
170.574690
21
-90.433179
0
LINE
8
0
10
170.574690
20
-90.433179
11
170.666997
21
-89.737400
0
LINE
8
0
10
170.666997
20
-89.737400
11
170.667000
21
-89.737400
0
LINE
8
0
10
58.666600
20
-89.737400
11
58.574289
21
-89.041621
0
LINE
8
0
10
58.574289
20
-89.041621
11
58.309331
21
-88.404070
0
LINE
8
0
10
58.309331
20
-88.404070
11
57.889673
21
-87.855835
0
LINE
8
0
10
57.889673
20
-87.855835
11
57.333265
21
-87.428005
0
LINE
8
0
10
57.333265
20
-87.428005
11
56.684549
21
-87.160056
0
LINE
8
0
10
56.684549
20
-87.160056
11
55.999935
21
-87.070740
0
LINE
8
0
10
55.999935
20
-87.070740
11
55.315321
21
-87.160056
0
LINE
8
0
10
55.315321
20
-87.160056
11
54.666605
21
-87.428005
0
LINE
8
0
10
54.666605
20
-87.428005
11
54.110197
21
-87.855835
0
LINE
8
0
10
54.110197
20
-87.855835
11
53.690540
21
-88.404070
0
LINE
8
0
10
53.690540
20
-88.404070
11
53.425583
21
-89.041621
0
LINE
8
0
10
53.425583
20
-89.041621
11
53.333275
21
-89.737400
0
LINE
8
0
10
53.333275
20
-89.737400
11
53.425584
21
-90.433179
0
LINE
8
0
10
53.425584
20
-90.433179
11
53.690542
21
-91.070730
0
LINE
8
0
10
53.690542
20
-91.070730
11
54.110199
21
-91.618965
0
LINE
8
0
10
54.110199
20
-91.618965
11
54.666607
21
-92.046795
0
LINE
8
0
10
54.666607
20
-92.046795
11
55.315323
21
-92.314744
0
LINE
8
0
10
55.315323
20
-92.314744
11
55.999938
21
-92.404060
0
LINE
8
0
10
55.999938
20
-92.404060
11
56.684552
21
-92.314744
0
LINE
8
0
10
56.684552
20
-92.314744
11
57.333267
21
-92.046795
0
LINE
8
0
10
57.333267
20
-92.046795
11
57.889676
21
-91.618965
0
LINE
8
0
10
57.889676
20
-91.618965
11
58.309333
21
-91.070730
0
LINE
8
0
10
58.309333
20
-91.070730
11
58.574290
21
-90.433179
0
LINE
8
0
10
58.574290
20
-90.433179
11
58.666598
21
-89.737400
0
LINE
8
0
10
58.666598
20
-89.737400
11
58.666600
21
-89.737400
0
LINE
8
0
10
-53.333300
20
-89.737400
11
-53.425611
21
-89.041621
0
LINE
8
0
10
-53.425611
20
-89.041621
11
-53.690569
21
-88.404070
0
LINE
8
0
10
-53.690569
20
-88.404070
11
-54.110227
21
-87.855835
0
LINE
8
0
10
-54.110227
20
-87.855835
11
-54.666635
21
-87.428005
0
LINE
8
0
10
-54.666635
20
-87.428005
11
-55.315351
21
-87.160056
0
LINE
8
0
10
-55.315351
20
-87.160056
11
-55.999965
21
-87.070740
0
LINE
8
0
10
-55.999965
20
-87.070740
11
-56.684579
21
-87.160056
0
LINE
8
0
10
-56.684579
20
-87.160056
11
-57.333295
21
-87.428005
0
LINE
8
0
10
-57.333295
20
-87.428005
11
-57.889703
21
-87.855835
0
LINE
8
0
10
-57.889703
20
-87.855835
11
-58.309360
21
-88.404070
0
LINE
8
0
10
-58.309360
20
-88.404070
11
-58.574317
21
-89.041621
0
LINE
8
0
10
-58.574317
20
-89.041621
11
-58.666625
21
-89.737400
0
LINE
8
0
10
-58.666625
20
-89.737400
11
-58.574316
21
-90.433179
0
LINE
8
0
10
-58.574316
20
-90.433179
11
-58.309358
21
-91.070730
0
LINE
8
0
10
-58.309358
20
-91.070730
11
-57.889701
21
-91.618965
0
LINE
8
0
10
-57.889701
20
-91.618965
11
-57.333292
21
-92.046795
0
LINE
8
0
10
-57.333292
20
-92.046795
11
-56.684577
21
-92.314744
0
LINE
8
0
10
-56.684577
20
-92.314744
11
-55.999962
21
-92.404060
0
LINE
8
0
10
-55.999962
20
-92.404060
11
-55.315348
21
-92.314744
0
LINE
8
0
10
-55.315348
20
-92.314744
11
-54.666632
21
-92.046795
0
LINE
8
0
10
-54.666632
20
-92.046795
11
-54.110224
21
-91.618965
0
LINE
8
0
10
-54.110224
20
-91.618965
11
-53.690567
21
-91.070730
0
LINE
8
0
10
-53.690567
20
-91.070730
11
-53.425610
21
-90.433179
0
LINE
8
0
10
-53.425610
20
-90.433179
11
-53.333302
21
-89.737400
0
LINE
8
0
10
-53.333302
20
-89.737400
11
-53.333300
21
-89.737400
0
LINE
8
0
10
-109.333000
20
7.257400
11
-109.425311
21
7.953179
0
LINE
8
0
10
-109.425311
20
7.953179
11
-109.690269
21
8.590730
0
LINE
8
0
10
-109.690269
20
8.590730
11
-110.109927
21
9.138965
0
LINE
8
0
10
-110.109927
20
9.138965
11
-110.666335
21
9.566795
0
LINE
8
0
10
-110.666335
20
9.566795
11
-111.315051
21
9.834744
0
LINE
8
0
10
-111.315051
20
9.834744
11
-111.999665
21
9.924060
0
LINE
8
0
10
-111.999665
20
9.924060
11
-112.684279
21
9.834744
0
LINE
8
0
10
-112.684279
20
9.834744
11
-113.332995
21
9.566795
0
LINE
8
0
10
-113.332995
20
9.566795
11
-113.889403
21
9.138965
0
LINE
8
0
10
-113.889403
20
9.138965
11
-114.309060
21
8.590730
0
LINE
8
0
10
-114.309060
20
8.590730
11
-114.574017
21
7.953179
0
LINE
8
0
10
-114.574017
20
7.953179
11
-114.666325
21
7.257400
0
LINE
8
0
10
-114.666325
20
7.257400
11
-114.574016
21
6.561621
0
LINE
8
0
10
-114.574016
20
6.561621
11
-114.309058
21
5.924070
0
LINE
8
0
10
-114.309058
20
5.924070
11
-113.889401
21
5.375835
0
LINE
8
0
10
-113.889401
20
5.375835
11
-113.332992
21
4.948005
0
LINE
8
0
10
-113.332992
20
4.948005
11
-112.684277
21
4.680056
0
LINE
8
0
10
-112.684277
20
4.680056
11
-111.999662
21
4.590740
0
LINE
8
0
10
-111.999662
20
4.590740
11
-111.315048
21
4.680056
0
LINE
8
0
10
-111.315048
20
4.680056
11
-110.666332
21
4.948005
0
LINE
8
0
10
-110.666332
20
4.948005
11
-110.109924
21
5.375835
0
LINE
8
0
10
-110.109924
20
5.375835
11
-109.690267
21
5.924070
0
LINE
8
0
10
-109.690267
20
5.924070
11
-109.425310
21
6.561621
0
LINE
8
0
10
-109.425310
20
6.561621
11
-109.333002
21
7.257400
0
LINE
8
0
10
-109.333002
20
7.257400
11
-109.333000
21
7.257400
0
LINE
8
0
10
-117.333000
20
-31.070800
11
-117.438856
21
-27.689791
0
LINE
8
0
10
-117.438856
20
-27.689791
11
-117.766370
21
-24.349963
0
LINE
8
0
10
-117.766370
20
-24.349963
11
-118.310205
21
-21.060585
0
LINE
8
0
10
-118.310205
20
-21.060585
11
-119.065025
21
-17.830931
0
LINE
8
0
10
-119.065025
20
-17.830931
11
-120.025493
21
-14.670271
0
LINE
8
0
10
-120.025493
20
-14.670271
11
-121.186273
21
-11.587878
0
LINE
8
0
10
-121.186273
20
-11.587878
11
-122.542028
21
-8.593022
0
LINE
8
0
10
-122.542028
20
-8.593022
11
-124.087421
21
-5.694976
0
LINE
8
0
10
-124.087421
20
-5.694976
11
-125.817116
21
-2.903012
0
LINE
8
0
10
-125.817116
20
-2.903012
11
-127.725775
21
-0.226401
0
LINE
8
0
10
-127.725775
20
-0.226401
11
-129.808063
21
2.325586
0
LINE
8
0
10
-129.808063
20
2.325586
11
-132.058643
21
4.743676
0
LINE
8
0
10
-132.058643
20
4.743676
11
-134.472178
21
7.018598
0
LINE
8
0
10
-134.472178
20
7.018598
11
-137.043331
21
9.141081
0
LINE
8
0
10
-137.043331
20
9.141081
11
-139.766766
21
11.101852
0
LINE
8
0
10
-139.766766
20
11.101852
11
-142.637146
21
12.891640
0
LINE
8
0
10
-142.637146
20
12.891640
11
-145.620228
21
14.486521
0
LINE
8
0
10
-145.620228
20
14.486521
11
-148.678196
21
15.868751
0
LINE
8
0
10
-148.678196
20
15.868751
11
-151.800350
21
17.038330
0
LINE
8
0
10
-151.800350
20
17.038330
11
-154.975993
21
17.995258
0
LINE
8
0
10
-154.975993
20
17.995258
11
-158.194427
21
18.739536
0
LINE
8
0
10
-158.194427
20
18.739536
11
-161.444955
21
19.271163
0
LINE
8
0
10
-161.444955
20
19.271163
11
-164.716879
21
19.590139
0
LINE
8
0
10
-164.716879
20
19.590139
11
-167.999500
21
19.696464
0
LINE
8
0
10
-167.999500
20
19.696464
11
-171.282121
21
19.590139
0
LINE
8
0
10
-171.282121
20
19.590139
11
-174.554045
21
19.271163
0
LINE
8
0
10
-174.554045
20
19.271163
11
-177.804573
21
18.739536
0
LINE
8
0
10
-177.804573
20
18.739536
11
-181.023007
21
17.995258
0
LINE
8
0
10
-181.023007
20
17.995258
11
-184.198650
21
17.038330
0
LINE
8
0
10
-184.198650
20
17.038330
11
-187.320804
21
15.868751
0
LINE
8
0
10
-187.320804
20
15.868751
11
-190.378772
21
14.486521
0
LINE
8
0
10
-190.378772
20
14.486521
11
-193.361854
21
12.891640
0
LINE
8
0
10
-193.361854
20
12.891640
11
-196.232234
21
11.101852
0
LINE
8
0
10
-196.232234
20
11.101852
11
-198.955669
21
9.141081
0
LINE
8
0
10
-198.955669
20
9.141081
11
-201.526822
21
7.018598
0
LINE
8
0
10
-201.526822
20
7.018598
11
-203.940357
21
4.743676
0
LINE
8
0
10
-203.940357
20
4.743676
11
-206.190937
21
2.325586
0
LINE
8
0
10
-206.190937
20
2.325586
11
-208.273225
21
-0.226401
0
LINE
8
0
10
-208.273225
20
-0.226401
11
-210.181884
21
-2.903012
0
LINE
8
0
10
-210.181884
20
-2.903012
11
-211.911579
21
-5.694976
0
LINE
8
0
10
-211.911579
20
-5.694976
11
-213.456972
21
-8.593022
0
LINE
8
0
10
-213.456972
20
-8.593022
11
-214.812727
21
-11.587878
0
LINE
8
0
10
-214.812727
20
-11.587878
11
-215.973507
21
-14.670271
0
LINE
8
0
10
-215.973507
20
-14.670271
11
-216.933975
21
-17.830931
0
LINE
8
0
10
-216.933975
20
-17.830931
11
-217.688795
21
-21.060585
0
LINE
8
0
10
-217.688795
20
-21.060585
11
-218.232630
21
-24.349963
0
LINE
8
0
10
-218.232630
20
-24.349963
11
-218.560144
21
-27.689791
0
LINE
8
0
10
-218.560144
20
-27.689791
11
-218.666000
21
-31.070800
0
LINE
8
0
10
-218.666000
20
-31.070800
11
-218.560144
21
-34.451809
0
LINE
8
0
10
-218.560144
20
-34.451809
11
-218.232630
21
-37.791637
0
LINE
8
0
10
-218.232630
20
-37.791637
11
-217.688795
21
-41.081015
0
LINE
8
0
10
-217.688795
20
-41.081015
11
-216.933975
21
-44.310669
0
LINE
8
0
10
-216.933975
20
-44.310669
11
-215.973507
21
-47.471329
0
LINE
8
0
10
-215.973507
20
-47.471329
11
-214.812727
21
-50.553722
0
LINE
8
0
10
-214.812727
20
-50.553722
11
-213.456972
21
-53.548578
0
LINE
8
0
10
-213.456972
20
-53.548578
11
-211.911579
21
-56.446624
0
LINE
8
0
10
-211.911579
20
-56.446624
11
-210.181884
21
-59.238588
0
LINE
8
0
10
-210.181884
20
-59.238588
11
-208.273225
21
-61.915199
0
LINE
8
0
10
-208.273225
20
-61.915199
11
-206.190937
21
-64.467186
0
LINE
8
0
10
-206.190937
20
-64.467186
11
-203.940357
21
-66.885276
0
LINE
8
0
10
-203.940357
20
-66.885276
11
-201.526822
21
-69.160198
0
LINE
8
0
10
-201.526822
20
-69.160198
11
-198.955669
21
-71.282681
0
LINE
8
0
10
-198.955669
20
-71.282681
11
-196.232234
21
-73.243452
0
LINE
8
0
10
-196.232234
20
-73.243452
11
-193.361854
21
-75.033240
0
LINE
8
0
10
-193.361854
20
-75.033240
11
-190.378772
21
-76.628121
0
LINE
8
0
10
-190.378772
20
-76.628121
11
-187.320804
21
-78.010351
0
LINE
8
0
10
-187.320804
20
-78.010351
11
-184.198650
21
-79.179930
0
LINE
8
0
10
-184.198650
20
-79.179930
11
-181.023007
21
-80.136858
0
LINE
8
0
10
-181.023007
20
-80.136858
11
-177.804573
21
-80.881136
0
LINE
8
0
10
-177.804573
20
-80.881136
11
-174.554045
21
-81.412763
0
LINE
8
0
10
-174.554045
20
-81.412763
11
-171.282121
21
-81.731739
0
LINE
8
0
10
-171.282121
20
-81.731739
11
-167.999500
21
-81.838064
0
LINE
8
0
10
-167.999500
20
-81.838064
11
-164.716879
21
-81.731739
0
LINE
8
0
10
-164.716879
20
-81.731739
11
-161.444955
21
-81.412763
0
LINE
8
0
10
-161.444955
20
-81.412763
11
-158.194427
21
-80.881136
0
LINE
8
0
10
-158.194427
20
-80.881136
11
-154.975993
21
-80.136858
0
LINE
8
0
10
-154.975993
20
-80.136858
11
-151.800350
21
-79.179930
0
LINE
8
0
10
-151.800350
20
-79.179930
11
-148.678196
21
-78.010351
0
LINE
8
0
10
-148.678196
20
-78.010351
11
-145.620228
21
-76.628121
0
LINE
8
0
10
-145.620228
20
-76.628121
11
-142.637146
21
-75.033240
0
LINE
8
0
10
-142.637146
20
-75.033240
11
-139.766766
21
-73.243452
0
LINE
8
0
10
-139.766766
20
-73.243452
11
-137.043331
21
-71.282681
0
LINE
8
0
10
-137.043331
20
-71.282681
11
-134.472178
21
-69.160198
0
LINE
8
0
10
-134.472178
20
-69.160198
11
-132.058643
21
-66.885276
0
LINE
8
0
10
-132.058643
20
-66.885276
11
-129.808063
21
-64.467186
0
LINE
8
0
10
-129.808063
20
-64.467186
11
-127.725775
21
-61.915199
0
LINE
8
0
10
-127.725775
20
-61.915199
11
-125.817116
21
-59.238588
0
LINE
8
0
10
-125.817116
20
-59.238588
11
-124.087421
21
-56.446624
0
LINE
8
0
10
-124.087421
20
-56.446624
11
-122.542028
21
-53.548578
0
LINE
8
0
10
-122.542028
20
-53.548578
11
-121.186273
21
-50.553722
0
LINE
8
0
10
-121.186273
20
-50.553722
11
-120.025493
21
-47.471329
0
LINE
8
0
10
-120.025493
20
-47.471329
11
-119.065025
21
-44.310669
0
LINE
8
0
10
-119.065025
20
-44.310669
11
-118.310205
21
-41.081015
0
LINE
8
0
10
-118.310205
20
-41.081015
11
-117.766370
21
-37.791637
0
LINE
8
0
10
-117.766370
20
-37.791637
11
-117.438856
21
-34.451809
0
LINE
8
0
10
-117.438856
20
-34.451809
11
-117.333000
21
-31.070800
0
LINE
8
0
10
-117.333000
20
-31.070800
11
-117.333000
21
-31.070800
0
LINE
8
0
10
-5.333330
20
-31.070800
11
-5.439186
21
-27.689791
0
LINE
8
0
10
-5.439186
20
-27.689791
11
-5.766700
21
-24.349963
0
LINE
8
0
10
-5.766700
20
-24.349963
11
-6.310535
21
-21.060585
0
LINE
8
0
10
-6.310535
20
-21.060585
11
-7.065355
21
-17.830931
0
LINE
8
0
10
-7.065355
20
-17.830931
11
-8.025823
21
-14.670271
0
LINE
8
0
10
-8.025823
20
-14.670271
11
-9.186603
21
-11.587878
0
LINE
8
0
10
-9.186603
20
-11.587878
11
-10.542358
21
-8.593022
0
LINE
8
0
10
-10.542358
20
-8.593022
11
-12.087751
21
-5.694976
0
LINE
8
0
10
-12.087751
20
-5.694976
11
-13.817446
21
-2.903012
0
LINE
8
0
10
-13.817446
20
-2.903012
11
-15.726105
21
-0.226401
0
LINE
8
0
10
-15.726105
20
-0.226401
11
-17.808393
21
2.325586
0
LINE
8
0
10
-17.808393
20
2.325586
11
-20.058973
21
4.743676
0
LINE
8
0
10
-20.058973
20
4.743676
11
-22.472508
21
7.018598
0
LINE
8
0
10
-22.472508
20
7.018598
11
-25.043661
21
9.141081
0
LINE
8
0
10
-25.043661
20
9.141081
11
-27.767096
21
11.101852
0
LINE
8
0
10
-27.767096
20
11.101852
11
-30.637476
21
12.891640
0
LINE
8
0
10
-30.637476
20
12.891640
11
-33.620558
21
14.486521
0
LINE
8
0
10
-33.620558
20
14.486521
11
-36.678526
21
15.868751
0
LINE
8
0
10
-36.678526
20
15.868751
11
-39.800680
21
17.038330
0
LINE
8
0
10
-39.800680
20
17.038330
11
-42.976323
21
17.995258
0
LINE
8
0
10
-42.976323
20
17.995258
11
-46.194757
21
18.739536
0
LINE
8
0
10
-46.194757
20
18.739536
11
-49.445285
21
19.271163
0
LINE
8
0
10
-49.445285
20
19.271163
11
-52.717209
21
19.590139
0
LINE
8
0
10
-52.717209
20
19.590139
11
-55.999830
21
19.696464
0
LINE
8
0
10
-55.999830
20
19.696464
11
-59.282451
21
19.590139
0
LINE
8
0
10
-59.282451
20
19.590139
11
-62.554375
21
19.271163
0
LINE
8
0
10
-62.554375
20
19.271163
11
-65.804903
21
18.739536
0
LINE
8
0
10
-65.804903
20
18.739536
11
-69.023337
21
17.995258
0
LINE
8
0
10
-69.023337
20
17.995258
11
-72.198980
21
17.038330
0
LINE
8
0
10
-72.198980
20
17.038330
11
-75.321134
21
15.868751
0
LINE
8
0
10
-75.321134
20
15.868751
11
-78.379102
21
14.486521
0
LINE
8
0
10
-78.379102
20
14.486521
11
-81.362184
21
12.891640
0
LINE
8
0
10
-81.362184
20
12.891640
11
-84.232564
21
11.101852
0
LINE
8
0
10
-84.232564
20
11.101852
11
-86.955999
21
9.141081
0
LINE
8
0
10
-86.955999
20
9.141081
11
-89.527152
21
7.018598
0
LINE
8
0
10
-89.527152
20
7.018598
11
-91.940687
21
4.743676
0
LINE
8
0
10
-91.940687
20
4.743676
11
-94.191267
21
2.325586
0
LINE
8
0
10
-94.191267
20
2.325586
11
-96.273555
21
-0.226401
0
LINE
8
0
10
-96.273555
20
-0.226401
11
-98.182214
21
-2.903012
0
LINE
8
0
10
-98.182214
20
-2.903012
11
-99.911909
21
-5.694976
0
LINE
8
0
10
-99.911909
20
-5.694976
11
-101.457302
21
-8.593022
0
LINE
8
0
10
-101.457302
20
-8.593022
11
-102.813057
21
-11.587878
0
LINE
8
0
10
-102.813057
20
-11.587878
11
-103.973837
21
-14.670271
0
LINE
8
0
10
-103.973837
20
-14.670271
11
-104.934305
21
-17.830931
0
LINE
8
0
10
-104.934305
20
-17.830931
11
-105.689125
21
-21.060585
0
LINE
8
0
10
-105.689125
20
-21.060585
11
-106.232960
21
-24.349963
0
LINE
8
0
10
-106.232960
20
-24.349963
11
-106.560474
21
-27.689791
0
LINE
8
0
10
-106.560474
20
-27.689791
11
-106.666330
21
-31.070800
0
LINE
8
0
10
-106.666330
20
-31.070800
11
-106.560474
21
-34.451809
0
LINE
8
0
10
-106.560474
20
-34.451809
11
-106.232960
21
-37.791637
0
LINE
8
0
10
-106.232960
20
-37.791637
11
-105.689125
21
-41.081015
0
LINE
8
0
10
-105.689125
20
-41.081015
11
-104.934305
21
-44.310669
0
LINE
8
0
10
-104.934305
20
-44.310669
11
-103.973837
21
-47.471329
0
LINE
8
0
10
-103.973837
20
-47.471329
11
-102.813057
21
-50.553722
0
LINE
8
0
10
-102.813057
20
-50.553722
11
-101.457302
21
-53.548578
0
LINE
8
0
10
-101.457302
20
-53.548578
11
-99.911909
21
-56.446624
0
LINE
8
0
10
-99.911909
20
-56.446624
11
-98.182214
21
-59.238588
0
LINE
8
0
10
-98.182214
20
-59.238588
11
-96.273555
21
-61.915199
0
LINE
8
0
10
-96.273555
20
-61.915199
11
-94.191267
21
-64.467186
0
LINE
8
0
10
-94.191267
20
-64.467186
11
-91.940687
21
-66.885276
0
LINE
8
0
10
-91.940687
20
-66.885276
11
-89.527152
21
-69.160198
0
LINE
8
0
10
-89.527152
20
-69.160198
11
-86.955999
21
-71.282681
0
LINE
8
0
10
-86.955999
20
-71.282681
11
-84.232564
21
-73.243452
0
LINE
8
0
10
-84.232564
20
-73.243452
11
-81.362184
21
-75.033240
0
LINE
8
0
10
-81.362184
20
-75.033240
11
-78.379102
21
-76.628121
0
LINE
8
0
10
-78.379102
20
-76.628121
11
-75.321134
21
-78.010351
0
LINE
8
0
10
-75.321134
20
-78.010351
11
-72.198980
21
-79.179930
0
LINE
8
0
10
-72.198980
20
-79.179930
11
-69.023337
21
-80.136858
0
LINE
8
0
10
-69.023337
20
-80.136858
11
-65.804903
21
-80.881136
0
LINE
8
0
10
-65.804903
20
-80.881136
11
-62.554375
21
-81.412763
0
LINE
8
0
10
-62.554375
20
-81.412763
11
-59.282451
21
-81.731739
0
LINE
8
0
10
-59.282451
20
-81.731739
11
-55.999830
21
-81.838064
0
LINE
8
0
10
-55.999830
20
-81.838064
11
-52.717209
21
-81.731739
0
LINE
8
0
10
-52.717209
20
-81.731739
11
-49.445285
21
-81.412763
0
LINE
8
0
10
-49.445285
20
-81.412763
11
-46.194757
21
-80.881136
0
LINE
8
0
10
-46.194757
20
-80.881136
11
-42.976323
21
-80.136858
0
LINE
8
0
10
-42.976323
20
-80.136858
11
-39.800680
21
-79.179930
0
LINE
8
0
10
-39.800680
20
-79.179930
11
-36.678526
21
-78.010351
0
LINE
8
0
10
-36.678526
20
-78.010351
11
-33.620558
21
-76.628121
0
LINE
8
0
10
-33.620558
20
-76.628121
11
-30.637476
21
-75.033240
0
LINE
8
0
10
-30.637476
20
-75.033240
11
-27.767096
21
-73.243452
0
LINE
8
0
10
-27.767096
20
-73.243452
11
-25.043661
21
-71.282681
0
LINE
8
0
10
-25.043661
20
-71.282681
11
-22.472508
21
-69.160198
0
LINE
8
0
10
-22.472508
20
-69.160198
11
-20.058973
21
-66.885276
0
LINE
8
0
10
-20.058973
20
-66.885276
11
-17.808393
21
-64.467186
0
LINE
8
0
10
-17.808393
20
-64.467186
11
-15.726105
21
-61.915199
0
LINE
8
0
10
-15.726105
20
-61.915199
11
-13.817446
21
-59.238588
0
LINE
8
0
10
-13.817446
20
-59.238588
11
-12.087751
21
-56.446624
0
LINE
8
0
10
-12.087751
20
-56.446624
11
-10.542358
21
-53.548578
0
LINE
8
0
10
-10.542358
20
-53.548578
11
-9.186603
21
-50.553722
0
LINE
8
0
10
-9.186603
20
-50.553722
11
-8.025823
21
-47.471329
0
LINE
8
0
10
-8.025823
20
-47.471329
11
-7.065355
21
-44.310669
0
LINE
8
0
10
-7.065355
20
-44.310669
11
-6.310535
21
-41.081015
0
LINE
8
0
10
-6.310535
20
-41.081015
11
-5.766700
21
-37.791637
0
LINE
8
0
10
-5.766700
20
-37.791637
11
-5.439186
21
-34.451809
0
LINE
8
0
10
-5.439186
20
-34.451809
11
-5.333330
21
-31.070800
0
LINE
8
0
10
-5.333330
20
-31.070800
11
-5.333330
21
-31.070800
0
LINE
8
0
10
106.667000
20
-31.070800
11
106.561144
21
-27.689791
0
LINE
8
0
10
106.561144
20
-27.689791
11
106.233630
21
-24.349963
0
LINE
8
0
10
106.233630
20
-24.349963
11
105.689795
21
-21.060585
0
LINE
8
0
10
105.689795
20
-21.060585
11
104.934975
21
-17.830931
0
LINE
8
0
10
104.934975
20
-17.830931
11
103.974507
21
-14.670271
0
LINE
8
0
10
103.974507
20
-14.670271
11
102.813727
21
-11.587878
0
LINE
8
0
10
102.813727
20
-11.587878
11
101.457972
21
-8.593022
0
LINE
8
0
10
101.457972
20
-8.593022
11
99.912579
21
-5.694976
0
LINE
8
0
10
99.912579
20
-5.694976
11
98.182884
21
-2.903012
0
LINE
8
0
10
98.182884
20
-2.903012
11
96.274225
21
-0.226401
0
LINE
8
0
10
96.274225
20
-0.226401
11
94.191937
21
2.325586
0
LINE
8
0
10
94.191937
20
2.325586
11
91.941357
21
4.743676
0
LINE
8
0
10
91.941357
20
4.743676
11
89.527822
21
7.018598
0
LINE
8
0
10
89.527822
20
7.018598
11
86.956669
21
9.141081
0
LINE
8
0
10
86.956669
20
9.141081
11
84.233234
21
11.101852
0
LINE
8
0
10
84.233234
20
11.101852
11
81.362854
21
12.891640
0
LINE
8
0
10
81.362854
20
12.891640
11
78.379772
21
14.486521
0
LINE
8
0
10
78.379772
20
14.486521
11
75.321804
21
15.868751
0
LINE
8
0
10
75.321804
20
15.868751
11
72.199650
21
17.038330
0
LINE
8
0
10
72.199650
20
17.038330
11
69.024007
21
17.995258
0
LINE
8
0
10
69.024007
20
17.995258
11
65.805573
21
18.739536
0
LINE
8
0
10
65.805573
20
18.739536
11
62.555045
21
19.271163
0
LINE
8
0
10
62.555045
20
19.271163
11
59.283121
21
19.590139
0
LINE
8
0
10
59.283121
20
19.590139
11
56.000500
21
19.696464
0
LINE
8
0
10
56.000500
20
19.696464
11
52.717879
21
19.590139
0
LINE
8
0
10
52.717879
20
19.590139
11
49.445955
21
19.271163
0
LINE
8
0
10
49.445955
20
19.271163
11
46.195427
21
18.739536
0
LINE
8
0
10
46.195427
20
18.739536
11
42.976993
21
17.995258
0
LINE
8
0
10
42.976993
20
17.995258
11
39.801350
21
17.038330
0
LINE
8
0
10
39.801350
20
17.038330
11
36.679196
21
15.868751
0
LINE
8
0
10
36.679196
20
15.868751
11
33.621228
21
14.486521
0
LINE
8
0
10
33.621228
20
14.486521
11
30.638146
21
12.891640
0
LINE
8
0
10
30.638146
20
12.891640
11
27.767766
21
11.101852
0
LINE
8
0
10
27.767766
20
11.101852
11
25.044331
21
9.141081
0
LINE
8
0
10
25.044331
20
9.141081
11
22.473178
21
7.018598
0
LINE
8
0
10
22.473178
20
7.018598
11
20.059643
21
4.743676
0
LINE
8
0
10
20.059643
20
4.743676
11
17.809063
21
2.325586
0
LINE
8
0
10
17.809063
20
2.325586
11
15.726775
21
-0.226401
0
LINE
8
0
10
15.726775
20
-0.226401
11
13.818116
21
-2.903012
0
LINE
8
0
10
13.818116
20
-2.903012
11
12.088421
21
-5.694976
0
LINE
8
0
10
12.088421
20
-5.694976
11
10.543028
21
-8.593022
0
LINE
8
0
10
10.543028
20
-8.593022
11
9.187273
21
-11.587878
0
LINE
8
0
10
9.187273
20
-11.587878
11
8.026493
21
-14.670271
0
LINE
8
0
10
8.026493
20
-14.670271
11
7.066025
21
-17.830931
0
LINE
8
0
10
7.066025
20
-17.830931
11
6.311205
21
-21.060585
0
LINE
8
0
10
6.311205
20
-21.060585
11
5.767370
21
-24.349963
0
LINE
8
0
10
5.767370
20
-24.349963
11
5.439856
21
-27.689791
0
LINE
8
0
10
5.439856
20
-27.689791
11
5.334000
21
-31.070800
0
LINE
8
0
10
5.334000
20
-31.070800
11
5.439856
21
-34.451809
0
LINE
8
0
10
5.439856
20
-34.451809
11
5.767370
21
-37.791637
0
LINE
8
0
10
5.767370
20
-37.791637
11
6.311205
21
-41.081015
0
LINE
8
0
10
6.311205
20
-41.081015
11
7.066025
21
-44.310669
0
LINE
8
0
10
7.066025
20
-44.310669
11
8.026493
21
-47.471329
0
LINE
8
0
10
8.026493
20
-47.471329
11
9.187273
21
-50.553722
0
LINE
8
0
10
9.187273
20
-50.553722
11
10.543028
21
-53.548578
0
LINE
8
0
10
10.543028
20
-53.548578
11
12.088421
21
-56.446624
0
LINE
8
0
10
12.088421
20
-56.446624
11
13.818116
21
-59.238588
0
LINE
8
0
10
13.818116
20
-59.238588
11
15.726775
21
-61.915199
0
LINE
8
0
10
15.726775
20
-61.915199
11
17.809063
21
-64.467186
0
LINE
8
0
10
17.809063
20
-64.467186
11
20.059643
21
-66.885276
0
LINE
8
0
10
20.059643
20
-66.885276
11
22.473178
21
-69.160198
0
LINE
8
0
10
22.473178
20
-69.160198
11
25.044331
21
-71.282681
0
LINE
8
0
10
25.044331
20
-71.282681
11
27.767766
21
-73.243452
0
LINE
8
0
10
27.767766
20
-73.243452
11
30.638146
21
-75.033240
0
LINE
8
0
10
30.638146
20
-75.033240
11
33.621228
21
-76.628121
0
LINE
8
0
10
33.621228
20
-76.628121
11
36.679196
21
-78.010351
0
LINE
8
0
10
36.679196
20
-78.010351
11
39.801350
21
-79.179930
0
LINE
8
0
10
39.801350
20
-79.179930
11
42.976993
21
-80.136858
0
LINE
8
0
10
42.976993
20
-80.136858
11
46.195427
21
-80.881136
0
LINE
8
0
10
46.195427
20
-80.881136
11
49.445955
21
-81.412763
0
LINE
8
0
10
49.445955
20
-81.412763
11
52.717879
21
-81.731739
0
LINE
8
0
10
52.717879
20
-81.731739
11
56.000500
21
-81.838064
0
LINE
8
0
10
56.000500
20
-81.838064
11
59.283121
21
-81.731739
0
LINE
8
0
10
59.283121
20
-81.731739
11
62.555045
21
-81.412763
0
LINE
8
0
10
62.555045
20
-81.412763
11
65.805573
21
-80.881136
0
LINE
8
0
10
65.805573
20
-80.881136
11
69.024007
21
-80.136858
0
LINE
8
0
10
69.024007
20
-80.136858
11
72.199650
21
-79.179930
0
LINE
8
0
10
72.199650
20
-79.179930
11
75.321804
21
-78.010351
0
LINE
8
0
10
75.321804
20
-78.010351
11
78.379772
21
-76.628121
0
LINE
8
0
10
78.379772
20
-76.628121
11
81.362854
21
-75.033240
0
LINE
8
0
10
81.362854
20
-75.033240
11
84.233234
21
-73.243452
0
LINE
8
0
10
84.233234
20
-73.243452
11
86.956669
21
-71.282681
0
LINE
8
0
10
86.956669
20
-71.282681
11
89.527822
21
-69.160198
0
LINE
8
0
10
89.527822
20
-69.160198
11
91.941357
21
-66.885276
0
LINE
8
0
10
91.941357
20
-66.885276
11
94.191937
21
-64.467186
0
LINE
8
0
10
94.191937
20
-64.467186
11
96.274225
21
-61.915199
0
LINE
8
0
10
96.274225
20
-61.915199
11
98.182884
21
-59.238588
0
LINE
8
0
10
98.182884
20
-59.238588
11
99.912579
21
-56.446624
0
LINE
8
0
10
99.912579
20
-56.446624
11
101.457972
21
-53.548578
0
LINE
8
0
10
101.457972
20
-53.548578
11
102.813727
21
-50.553722
0
LINE
8
0
10
102.813727
20
-50.553722
11
103.974507
21
-47.471329
0
LINE
8
0
10
103.974507
20
-47.471329
11
104.934975
21
-44.310669
0
LINE
8
0
10
104.934975
20
-44.310669
11
105.689795
21
-41.081015
0
LINE
8
0
10
105.689795
20
-41.081015
11
106.233630
21
-37.791637
0
LINE
8
0
10
106.233630
20
-37.791637
11
106.561144
21
-34.451809
0
LINE
8
0
10
106.561144
20
-34.451809
11
106.667000
21
-31.070800
0
LINE
8
0
10
106.667000
20
-31.070800
11
106.667000
21
-31.070800
0
LINE
8
0
10
218.666000
20
-31.070800
11
218.560144
21
-27.689791
0
LINE
8
0
10
218.560144
20
-27.689791
11
218.232630
21
-24.349963
0
LINE
8
0
10
218.232630
20
-24.349963
11
217.688795
21
-21.060585
0
LINE
8
0
10
217.688795
20
-21.060585
11
216.933975
21
-17.830931
0
LINE
8
0
10
216.933975
20
-17.830931
11
215.973507
21
-14.670271
0
LINE
8
0
10
215.973507
20
-14.670271
11
214.812727
21
-11.587878
0
LINE
8
0
10
214.812727
20
-11.587878
11
213.456972
21
-8.593022
0
LINE
8
0
10
213.456972
20
-8.593022
11
211.911579
21
-5.694976
0
LINE
8
0
10
211.911579
20
-5.694976
11
210.181884
21
-2.903012
0
LINE
8
0
10
210.181884
20
-2.903012
11
208.273225
21
-0.226401
0
LINE
8
0
10
208.273225
20
-0.226401
11
206.190937
21
2.325586
0
LINE
8
0
10
206.190937
20
2.325586
11
203.940357
21
4.743676
0
LINE
8
0
10
203.940357
20
4.743676
11
201.526822
21
7.018598
0
LINE
8
0
10
201.526822
20
7.018598
11
198.955669
21
9.141081
0
LINE
8
0
10
198.955669
20
9.141081
11
196.232234
21
11.101852
0
LINE
8
0
10
196.232234
20
11.101852
11
193.361854
21
12.891640
0
LINE
8
0
10
193.361854
20
12.891640
11
190.378772
21
14.486521
0
LINE
8
0
10
190.378772
20
14.486521
11
187.320804
21
15.868751
0
LINE
8
0
10
187.320804
20
15.868751
11
184.198650
21
17.038330
0
LINE
8
0
10
184.198650
20
17.038330
11
181.023007
21
17.995258
0
LINE
8
0
10
181.023007
20
17.995258
11
177.804573
21
18.739536
0
LINE
8
0
10
177.804573
20
18.739536
11
174.554045
21
19.271163
0
LINE
8
0
10
174.554045
20
19.271163
11
171.282121
21
19.590139
0
LINE
8
0
10
171.282121
20
19.590139
11
167.999500
21
19.696464
0
LINE
8
0
10
167.999500
20
19.696464
11
164.716879
21
19.590139
0
LINE
8
0
10
164.716879
20
19.590139
11
161.444955
21
19.271163
0
LINE
8
0
10
161.444955
20
19.271163
11
158.194427
21
18.739536
0
LINE
8
0
10
158.194427
20
18.739536
11
154.975993
21
17.995258
0
LINE
8
0
10
154.975993
20
17.995258
11
151.800350
21
17.038330
0
LINE
8
0
10
151.800350
20
17.038330
11
148.678196
21
15.868751
0
LINE
8
0
10
148.678196
20
15.868751
11
145.620228
21
14.486521
0
LINE
8
0
10
145.620228
20
14.486521
11
142.637146
21
12.891640
0
LINE
8
0
10
142.637146
20
12.891640
11
139.766766
21
11.101852
0
LINE
8
0
10
139.766766
20
11.101852
11
137.043331
21
9.141081
0
LINE
8
0
10
137.043331
20
9.141081
11
134.472178
21
7.018598
0
LINE
8
0
10
134.472178
20
7.018598
11
132.058643
21
4.743676
0
LINE
8
0
10
132.058643
20
4.743676
11
129.808063
21
2.325586
0
LINE
8
0
10
129.808063
20
2.325586
11
127.725775
21
-0.226401
0
LINE
8
0
10
127.725775
20
-0.226401
11
125.817116
21
-2.903012
0
LINE
8
0
10
125.817116
20
-2.903012
11
124.087421
21
-5.694976
0
LINE
8
0
10
124.087421
20
-5.694976
11
122.542028
21
-8.593022
0
LINE
8
0
10
122.542028
20
-8.593022
11
121.186273
21
-11.587878
0
LINE
8
0
10
121.186273
20
-11.587878
11
120.025493
21
-14.670271
0
LINE
8
0
10
120.025493
20
-14.670271
11
119.065025
21
-17.830931
0
LINE
8
0
10
119.065025
20
-17.830931
11
118.310205
21
-21.060585
0
LINE
8
0
10
118.310205
20
-21.060585
11
117.766370
21
-24.349963
0
LINE
8
0
10
117.766370
20
-24.349963
11
117.438856
21
-27.689791
0
LINE
8
0
10
117.438856
20
-27.689791
11
117.333000
21
-31.070800
0
LINE
8
0
10
117.333000
20
-31.070800
11
117.438856
21
-34.451809
0
LINE
8
0
10
117.438856
20
-34.451809
11
117.766370
21
-37.791637
0
LINE
8
0
10
117.766370
20
-37.791637
11
118.310205
21
-41.081015
0
LINE
8
0
10
118.310205
20
-41.081015
11
119.065025
21
-44.310669
0
LINE
8
0
10
119.065025
20
-44.310669
11
120.025493
21
-47.471329
0
LINE
8
0
10
120.025493
20
-47.471329
11
121.186273
21
-50.553722
0
LINE
8
0
10
121.186273
20
-50.553722
11
122.542028
21
-53.548578
0
LINE
8
0
10
122.542028
20
-53.548578
11
124.087421
21
-56.446624
0
LINE
8
0
10
124.087421
20
-56.446624
11
125.817116
21
-59.238588
0
LINE
8
0
10
125.817116
20
-59.238588
11
127.725775
21
-61.915199
0
LINE
8
0
10
127.725775
20
-61.915199
11
129.808063
21
-64.467186
0
LINE
8
0
10
129.808063
20
-64.467186
11
132.058643
21
-66.885276
0
LINE
8
0
10
132.058643
20
-66.885276
11
134.472178
21
-69.160198
0
LINE
8
0
10
134.472178
20
-69.160198
11
137.043331
21
-71.282681
0
LINE
8
0
10
137.043331
20
-71.282681
11
139.766766
21
-73.243452
0
LINE
8
0
10
139.766766
20
-73.243452
11
142.637146
21
-75.033240
0
LINE
8
0
10
142.637146
20
-75.033240
11
145.620228
21
-76.628121
0
LINE
8
0
10
145.620228
20
-76.628121
11
148.678196
21
-78.010351
0
LINE
8
0
10
148.678196
20
-78.010351
11
151.800350
21
-79.179930
0
LINE
8
0
10
151.800350
20
-79.179930
11
154.975993
21
-80.136858
0
LINE
8
0
10
154.975993
20
-80.136858
11
158.194427
21
-80.881136
0
LINE
8
0
10
158.194427
20
-80.881136
11
161.444955
21
-81.412763
0
LINE
8
0
10
161.444955
20
-81.412763
11
164.716879
21
-81.731739
0
LINE
8
0
10
164.716879
20
-81.731739
11
167.999500
21
-81.838064
0
LINE
8
0
10
167.999500
20
-81.838064
11
171.282121
21
-81.731739
0
LINE
8
0
10
171.282121
20
-81.731739
11
174.554045
21
-81.412763
0
LINE
8
0
10
174.554045
20
-81.412763
11
177.804573
21
-80.881136
0
LINE
8
0
10
177.804573
20
-80.881136
11
181.023007
21
-80.136858
0
LINE
8
0
10
181.023007
20
-80.136858
11
184.198650
21
-79.179930
0
LINE
8
0
10
184.198650
20
-79.179930
11
187.320804
21
-78.010351
0
LINE
8
0
10
187.320804
20
-78.010351
11
190.378772
21
-76.628121
0
LINE
8
0
10
190.378772
20
-76.628121
11
193.361854
21
-75.033240
0
LINE
8
0
10
193.361854
20
-75.033240
11
196.232234
21
-73.243452
0
LINE
8
0
10
196.232234
20
-73.243452
11
198.955669
21
-71.282681
0
LINE
8
0
10
198.955669
20
-71.282681
11
201.526822
21
-69.160198
0
LINE
8
0
10
201.526822
20
-69.160198
11
203.940357
21
-66.885276
0
LINE
8
0
10
203.940357
20
-66.885276
11
206.190937
21
-64.467186
0
LINE
8
0
10
206.190937
20
-64.467186
11
208.273225
21
-61.915199
0
LINE
8
0
10
208.273225
20
-61.915199
11
210.181884
21
-59.238588
0
LINE
8
0
10
210.181884
20
-59.238588
11
211.911579
21
-56.446624
0
LINE
8
0
10
211.911579
20
-56.446624
11
213.456972
21
-53.548578
0
LINE
8
0
10
213.456972
20
-53.548578
11
214.812727
21
-50.553722
0
LINE
8
0
10
214.812727
20
-50.553722
11
215.973507
21
-47.471329
0
LINE
8
0
10
215.973507
20
-47.471329
11
216.933975
21
-44.310669
0
LINE
8
0
10
216.933975
20
-44.310669
11
217.688795
21
-41.081015
0
LINE
8
0
10
217.688795
20
-41.081015
11
218.232630
21
-37.791637
0
LINE
8
0
10
218.232630
20
-37.791637
11
218.560144
21
-34.451809
0
LINE
8
0
10
218.560144
20
-34.451809
11
218.666000
21
-31.070800
0
LINE
8
0
10
218.666000
20
-31.070800
11
218.666000
21
-31.070800
0
LINE
8
0
10
225.037000
20
44.216400
11
238.912400
21
22.275100
0
LINE
8
0
10
157.781000
20
44.216400
11
225.037000
21
44.216400
0
LINE
8
0
10
66.219100
20
44.216400
11
67.900138
21
40.976709
0
LINE
8
0
10
67.900138
20
40.976709
11
69.791085
21
37.894417
0
LINE
8
0
10
69.791085
20
37.894417
11
71.880684
21
34.976645
0
LINE
8
0
10
71.880684
20
34.976645
11
74.157674
21
32.230514
0
LINE
8
0
10
74.157674
20
32.230514
11
76.610798
21
29.663148
0
LINE
8
0
10
76.610798
20
29.663148
11
79.228796
21
27.281666
0
LINE
8
0
10
79.228796
20
27.281666
11
82.000410
21
25.093193
0
LINE
8
0
10
82.000410
20
25.093193
11
84.914381
21
23.104848
0
LINE
8
0
10
84.914381
20
23.104848
11
87.959450
21
21.323754
0
LINE
8
0
10
87.959450
20
21.323754
11
91.124359
21
19.757034
0
LINE
8
0
10
91.124359
20
19.757034
11
94.397848
21
18.411807
0
LINE
8
0
10
94.397848
20
18.411807
11
97.768660
21
17.295198
0
LINE
8
0
10
97.768660
20
17.295198
11
101.225534
21
16.414326
0
LINE
8
0
10
101.225534
20
16.414326
11
104.757213
21
15.776315
0
LINE
8
0
10
104.757213
20
15.776315
11
108.352438
21
15.388285
0
LINE
8
0
10
108.352438
20
15.388285
11
111.999950
21
15.257359
0
LINE
8
0
10
111.999950
20
15.257359
11
115.647462
21
15.388285
0
LINE
8
0
10
115.647462
20
15.388285
11
119.242687
21
15.776315
0
LINE
8
0
10
119.242687
20
15.776315
11
122.774366
21
16.414326
0
LINE
8
0
10
122.774366
20
16.414326
11
126.231240
21
17.295198
0
LINE
8
0
10
126.231240
20
17.295198
11
129.602052
21
18.411807
0
LINE
8
0
10
129.602052
20
18.411807
11
132.875541
21
19.757034
0
LINE
8
0
10
132.875541
20
19.757034
11
136.040450
21
21.323754
0
LINE
8
0
10
136.040450
20
21.323754
11
139.085519
21
23.104848
0
LINE
8
0
10
139.085519
20
23.104848
11
141.999490
21
25.093193
0
LINE
8
0
10
141.999490
20
25.093193
11
144.771104
21
27.281666
0
LINE
8
0
10
144.771104
20
27.281666
11
147.389102
21
29.663148
0
LINE
8
0
10
147.389102
20
29.663148
11
149.842226
21
32.230514
0
LINE
8
0
10
149.842226
20
32.230514
11
152.119216
21
34.976645
0
LINE
8
0
10
152.119216
20
34.976645
11
154.208815
21
37.894417
0
LINE
8
0
10
154.208815
20
37.894417
11
156.099762
21
40.976709
0
LINE
8
0
10
156.099762
20
40.976709
11
157.780800
21
44.216400
0
LINE
8
0
10
45.780900
20
44.216400
11
66.219200
21
44.216400
0
LINE
8
0
10
-45.780800
20
44.216400
11
-44.099762
21
40.976709
0
LINE
8
0
10
-44.099762
20
40.976709
11
-42.208815
21
37.894417
0
LINE
8
0
10
-42.208815
20
37.894417
11
-40.119216
21
34.976645
0
LINE
8
0
10
-40.119216
20
34.976645
11
-37.842226
21
32.230514
0
LINE
8
0
10
-37.842226
20
32.230514
11
-35.389102
21
29.663148
0
LINE
8
0
10
-35.389102
20
29.663148
11
-32.771104
21
27.281666
0
LINE
8
0
10
-32.771104
20
27.281666
11
-29.999490
21
25.093193
0
LINE
8
0
10
-29.999490
20
25.093193
11
-27.085519
21
23.104848
0
LINE
8
0
10
-27.085519
20
23.104848
11
-24.040450
21
21.323754
0
LINE
8
0
10
-24.040450
20
21.323754
11
-20.875541
21
19.757034
0
LINE
8
0
10
-20.875541
20
19.757034
11
-17.602052
21
18.411807
0
LINE
8
0
10
-17.602052
20
18.411807
11
-14.231240
21
17.295198
0
LINE
8
0
10
-14.231240
20
17.295198
11
-10.774366
21
16.414326
0
LINE
8
0
10
-10.774366
20
16.414326
11
-7.242687
21
15.776315
0
LINE
8
0
10
-7.242687
20
15.776315
11
-3.647462
21
15.388285
0
LINE
8
0
10
-3.647462
20
15.388285
11
0.000050
21
15.257359
0
LINE
8
0
10
0.000050
20
15.257359
11
3.647562
21
15.388285
0
LINE
8
0
10
3.647562
20
15.388285
11
7.242787
21
15.776315
0
LINE
8
0
10
7.242787
20
15.776315
11
10.774466
21
16.414326
0
LINE
8
0
10
10.774466
20
16.414326
11
14.231340
21
17.295198
0
LINE
8
0
10
14.231340
20
17.295198
11
17.602152
21
18.411807
0
LINE
8
0
10
17.602152
20
18.411807
11
20.875641
21
19.757034
0
LINE
8
0
10
20.875641
20
19.757034
11
24.040550
21
21.323754
0
LINE
8
0
10
24.040550
20
21.323754
11
27.085619
21
23.104848
0
LINE
8
0
10
27.085619
20
23.104848
11
29.999590
21
25.093193
0
LINE
8
0
10
29.999590
20
25.093193
11
32.771204
21
27.281666
0
LINE
8
0
10
32.771204
20
27.281666
11
35.389202
21
29.663148
0
LINE
8
0
10
35.389202
20
29.663148
11
37.842326
21
32.230514
0
LINE
8
0
10
37.842326
20
32.230514
11
40.119316
21
34.976645
0
LINE
8
0
10
40.119316
20
34.976645
11
42.208915
21
37.894417
0
LINE
8
0
10
42.208915
20
37.894417
11
44.099862
21
40.976709
0
LINE
8
0
10
44.099862
20
40.976709
11
45.780900
21
44.216400
0
LINE
8
0
10
-66.219200
20
44.216400
11
-45.780900
21
44.216400
0
LINE
8
0
10
-157.781000
20
44.216400
11
-156.099962
21
40.976709
0
LINE
8
0
10
-156.099962
20
40.976709
11
-154.209015
21
37.894417
0
LINE
8
0
10
-154.209015
20
37.894417
11
-152.119416
21
34.976645
0
LINE
8
0
10
-152.119416
20
34.976645
11
-149.842426
21
32.230514
0
LINE
8
0
10
-149.842426
20
32.230514
11
-147.389302
21
29.663148
0
LINE
8
0
10
-147.389302
20
29.663148
11
-144.771304
21
27.281666
0
LINE
8
0
10
-144.771304
20
27.281666
11
-141.999690
21
25.093193
0
LINE
8
0
10
-141.999690
20
25.093193
11
-139.085719
21
23.104848
0
LINE
8
0
10
-139.085719
20
23.104848
11
-136.040650
21
21.323754
0
LINE
8
0
10
-136.040650
20
21.323754
11
-132.875741
21
19.757034
0
LINE
8
0
10
-132.875741
20
19.757034
11
-129.602252
21
18.411807
0
LINE
8
0
10
-129.602252
20
18.411807
11
-126.231440
21
17.295198
0
LINE
8
0
10
-126.231440
20
17.295198
11
-122.774566
21
16.414326
0
LINE
8
0
10
-122.774566
20
16.414326
11
-119.242887
21
15.776315
0
LINE
8
0
10
-119.242887
20
15.776315
11
-115.647662
21
15.388285
0
LINE
8
0
10
-115.647662
20
15.388285
11
-112.000150
21
15.257359
0
LINE
8
0
10
-112.000150
20
15.257359
11
-108.352638
21
15.388285
0
LINE
8
0
10
-108.352638
20
15.388285
11
-104.757413
21
15.776315
0
LINE
8
0
10
-104.757413
20
15.776315
11
-101.225734
21
16.414326
0
LINE
8
0
10
-101.225734
20
16.414326
11
-97.768860
21
17.295198
0
LINE
8
0
10
-97.768860
20
17.295198
11
-94.398048
21
18.411807
0
LINE
8
0
10
-94.398048
20
18.411807
11
-91.124559
21
19.757034
0
LINE
8
0
10
-91.124559
20
19.757034
11
-87.959650
21
21.323754
0
LINE
8
0
10
-87.959650
20
21.323754
11
-84.914581
21
23.104848
0
LINE
8
0
10
-84.914581
20
23.104848
11
-82.000610
21
25.093193
0
LINE
8
0
10
-82.000610
20
25.093193
11
-79.228996
21
27.281666
0
LINE
8
0
10
-79.228996
20
27.281666
11
-76.610998
21
29.663148
0
LINE
8
0
10
-76.610998
20
29.663148
11
-74.157874
21
32.230514
0
LINE
8
0
10
-74.157874
20
32.230514
11
-71.880884
21
34.976645
0
LINE
8
0
10
-71.880884
20
34.976645
11
-69.791285
21
37.894417
0
LINE
8
0
10
-69.791285
20
37.894417
11
-67.900338
21
40.976709
0
LINE
8
0
10
-67.900338
20
40.976709
11
-66.219300
21
44.216400
0
LINE
8
0
10
-225.037000
20
44.216400
11
-157.781000
21
44.216400
0
LINE
8
0
10
-238.912000
20
22.275000
11
-225.036600
21
44.216300
0
LINE
8
0
10
-244.322000
20
25.695900
11
-238.912930
21
22.275090
0
LINE
8
0
10
-244.322000
20
25.695900
11
-272.827000
21
-19.381200
0
LINE
8
0
10
-272.827000
20
-19.381200
11
-259.286800
21
-42.354100
0
LINE
8
0
10
-253.773000
20
-39.102900
11
-259.286770
21
-42.354100
0
LINE
8
0
10
-226.693000
20
-85.051400
11
-253.773300
21
-39.102800
0
LINE
8
0
10
-232.207000
20
-88.299800
11
-226.693510
21
-85.051420
0
LINE
8
0
10
-232.207000
20
-88.299800
11
-218.666800
21
-111.272700
0
LINE
8
0
10
-218.666000
20
-111.273000
11
-176.000000
21
-111.273000
0
LINE
8
0
10
-176.000000
20
-104.875000
11
-176.000000
21
-111.273000
0
LINE
8
0
10
-122.667000
20
-104.875000
11
-176.000000
21
-104.875000
0
LINE
8
0
10
-122.667000
20
-111.273000
11
-122.667000
21
-104.875000
0
LINE
8
0
10
-122.667000
20
-111.273000
11
-80.000100
21
-111.273000
0
LINE
8
0
10
-80.000100
20
-111.273000
11
-80.000100
21
-148.608000
0
LINE
8
0
10
-73.599800
20
-148.608000
11
-80.000100
21
-148.608000
0
LINE
8
0
10
-73.599800
20
-201.939000
11
-73.599800
21
-148.608000
0
LINE
8
0
10
-80.000100
20
-201.939000
11
-73.599800
21
-201.939000
0
LINE
8
0
10
-80.000100
20
-201.939000
11
-80.000100
21
-239.274000
0
LINE
8
0
10
-80.000100
20
-239.274000
11
-26.666600
21
-239.274000
0
LINE
8
0
10
-26.666600
20
-232.874000
11
-26.666600
21
-239.274000
0
LINE
8
0
10
26.666600
20
-232.874000
11
-26.666600
21
-232.874000
0
LINE
8
0
10
26.666600
20
-239.274000
11
26.666600
21
-232.874000
0
LINE
8
0
10
26.666600
20
-239.274000
11
80.000100
21
-239.274000
0
LINE
8
0
10
80.000100
20
-239.274000
11
80.000100
21
-201.939000
0
LINE
8
0
10
73.599800
20
-201.939000
11
80.000100
21
-201.939000
0
LINE
8
0
10
73.599800
20
-148.608000
11
73.599800
21
-201.939000
0
LINE
8
0
10
80.000100
20
-148.608000
11
73.599800
21
-148.608000
0
LINE
8
0
10
80.000100
20
-148.608000
11
80.000100
21
-111.273000
0
LINE
8
0
10
80.000100
20
-111.273000
11
122.667000
21
-111.273000
0
LINE
8
0
10
122.667000
20
-104.875000
11
122.667000
21
-111.273000
0
LINE
8
0
10
176.000000
20
-104.875000
11
122.667000
21
-104.875000
0
LINE
8
0
10
176.000000
20
-111.273000
11
176.000000
21
-104.875000
0
LINE
8
0
10
176.000000
20
-111.273000
11
218.666000
21
-111.273000
0
LINE
8
0
10
218.666000
20
-111.273000
11
232.206200
21
-88.300100
0
LINE
8
0
10
226.693000
20
-85.051400
11
232.206490
21
-88.299780
0
LINE
8
0
10
253.773000
20
-39.102900
11
226.692700
21
-85.051500
0
LINE
8
0
10
259.287000
20
-42.354100
11
253.773230
21
-39.102900
0
LINE
8
0
10
259.287000
20
-42.354100
11
272.827200
21
-19.381200
0
LINE
8
0
10
272.827000
20
-19.381200
11
244.322000
21
25.695900
0
LINE
8
0
10
238.912000
20
22.275000
11
244.321070
21
25.695810
 0 
ENDSEC
 0 
EOF